<svg id="Layer_1" data-name="Layer 1" xmlns="http://www.w3.org/2000/svg" viewBox="0 0 60 60">
    <title>ci_comunicacion_inteligente_logo</title>
    <style type="text/css"><![CDATA[
		path
		{
			fill: rgba(255,255,255,0.65);
		}
    ]]></style>

    <path d="M33.88,47.26A17.14,17.14,0,0,1,21.76,18a4.29,4.29,0,1,1,6.06,6.06A8.57,8.57,0,0,0,39.94,36.18,4.29,4.29,0,0,1,46,42.24,17,17,0,0,1,33.88,47.26Z" transform="translate(-2 -2)"/>
    <path d="M32,62a30,30,0,0,1-15.24-4.16,4.29,4.29,0,0,1,4.36-7.38A21.43,21.43,0,0,0,50.46,21.12a4.29,4.29,0,0,1,7.38-4.36A30,30,0,0,1,32,62Z" transform="translate(-2 -2)"/>
    <path d="M9.85,49.34a4.28,4.28,0,0,1-3.69-2.11A30,30,0,0,1,47.24,6.16a4.29,4.29,0,0,1-4.36,7.38A21.44,21.44,0,0,0,13.53,42.88,4.29,4.29,0,0,1,9.85,49.34Z" transform="translate(-2 -2)"/>
</svg>